# Blender v2.69 (sub 0) OBJ File: ''
# www.blender.org
o Cube_Cube.001
v -1.000000 -1.000000 1.000000
v -1.000000 -1.000000 -1.000000
v 1.000000 -1.000000 -1.000000
v 1.000000 -1.000000 1.000000
v -1.000000 1.000000 1.000000
v -1.000000 1.000000 -1.000000
v 1.000000 1.000000 -1.000000
v 1.000000 1.000000 1.000000
vn -0.577349 0.577349 0.577349
vn -0.577349 0.577349 -0.577349
vn -0.577349 -0.577349 0.577349
vn 0.577349 0.577349 -0.577349
vn -0.577349 -0.577349 -0.577349
vn 0.577349 0.577349 0.577349
vn 0.577349 -0.577349 -0.577349
vn 0.577349 -0.577349 0.577349
s 1
f 5//1 6//2 1//3
f 6//2 7//4 2//5
f 7//4 8//6 3//7
f 8//6 5//1 4//8
f 1//3 2//5 4//8
f 8//6 7//4 5//1
f 6//2 2//5 1//3
f 7//4 3//7 2//5
f 8//6 4//8 3//7
f 5//1 1//3 4//8
f 2//5 3//7 4//8
f 7//4 6//2 5//1
