# Blender v2.79 (sub 0) OBJ File: ''
# www.blender.org
o Cube
v 100.000000 -1.000000 -100.000000
v 100.000000 -1.000000 100.000000
v -100.000015 -1.000000 99.999977
v -99.999962 -1.000000 -100.000038
v 100.000046 1.000000 -99.999954
v 99.999939 1.000000 100.000061
v -100.000038 1.000000 99.999962
v -99.999985 1.000000 -100.000000
vt 0.961538 0.000000
vt 0.000000 0.500000
vt 0.000000 0.000000
vt 0.000000 0.500000
vt 0.961538 1.000000
vt 0.000000 1.000000
vt 0.971153 0.000000
vt 0.961538 0.500000
vt 0.961538 0.000000
vt 0.990385 0.500000
vt 1.000000 0.000000
vt 1.000000 0.500000
vt 0.980769 0.500000
vt 0.990385 0.000000
vt 0.990385 0.500000
vt 0.980769 0.000000
vt 0.971154 0.500000
vt 0.961538 0.500000
vt 0.961538 0.500000
vt 0.971154 0.500000
vt 0.990385 0.000000
vt 0.980769 0.000000
vt 0.980769 0.500000
vn 0.0000 -1.0000 0.0000
vn 0.0000 1.0000 0.0000
vn 1.0000 -0.0000 0.0000
vn -0.0000 -0.0000 1.0000
vn -1.0000 -0.0000 -0.0000
vn 0.0000 0.0000 -1.0000
s off
f 2/1/1 4/2/1 1/3/1
f 8/4/2 6/5/2 5/6/2
f 5/7/3 2/8/3 1/9/3
f 6/10/4 3/11/4 2/12/4
f 7/13/5 4/14/5 3/15/5
f 1/16/6 8/17/6 5/7/6
f 2/1/1 3/18/1 4/2/1
f 8/4/2 7/19/2 6/5/2
f 5/7/3 6/20/3 2/8/3
f 6/10/4 7/21/4 3/11/4
f 7/13/5 8/22/5 4/14/5
f 1/16/6 4/23/6 8/17/6
